<svg id="Layer_1" data-name="Layer 1" xmlns="http://www.w3.org/2000/svg" viewBox="0 0 35 35"><defs><style>.cls-1{fill:#111;}.cls-2{fill:#fff;}</style></defs><rect class="cls-1" x="4.35" y="4.35" width="26.29" height="26.29" rx="5.94" transform="translate(-7.25 17.5) rotate(-45)"/><path class="cls-2" d="M16.69,25.52h0a1.84,1.84,0,0,1,0-2.6l4.13-4.12a1.85,1.85,0,0,0,0-2.6l-4.13-4.12a1.82,1.82,0,0,1,0-2.59h0a1.85,1.85,0,0,1,2.6,0L26,16.2a1.85,1.85,0,0,1,0,2.6l-6.72,6.72A1.85,1.85,0,0,1,16.69,25.52Z"/><path class="cls-2" d="M12,22.8h0a1.23,1.23,0,0,1,0-1.72l2.73-2.72a1.23,1.23,0,0,0,0-1.72L12,13.92a1.21,1.21,0,0,1,0-1.71h0a1.23,1.23,0,0,1,1.72,0l4.44,4.44a1.23,1.23,0,0,1,0,1.72L13.68,22.8A1.23,1.23,0,0,1,12,22.8Z"/><path class="cls-2" d="M8.67,20.65h0a.72.72,0,0,1,0-1L10.29,18a.72.72,0,0,0,0-1L8.67,15.37a.71.71,0,0,1,0-1h0a.72.72,0,0,1,1,0L12.32,17a.72.72,0,0,1,0,1L9.69,20.65A.72.72,0,0,1,8.67,20.65Z"/></svg>